<svg xmlns="http://www.w3.org/2000/svg" xmlns:xlink="http://www.w3.org/1999/xlink" fill="none" version="1.1" width="24" height="24" viewBox="0 0 24 24"><defs><clipPath id="master_svg0_0_14474"><rect x="0" y="0" width="24" height="24" rx="0"/></clipPath></defs><g clip-path="url(#master_svg0_0_14474)"><g><path d="M4.25,8C4.25,8.41421,4.585786,8.75,5,8.75C5.41421,8.75,5.75,8.41421,5.75,8C5.75,8,4.25,8,4.25,8C4.25,8,4.25,8,4.25,8ZM18.25,8C18.25,8.41421,18.5858,8.75,19,8.75C19.4142,8.75,19.75,8.41421,19.75,8C19.75,8,18.25,8,18.25,8C18.25,8,18.25,8,18.25,8ZM5.75,8C5.75,8,5.75,7,5.75,7C5.75,7,4.25,7,4.25,7C4.25,7,4.25,8,4.25,8C4.25,8,5.75,8,5.75,8C5.75,8,5.75,8,5.75,8ZM7,5.75C7,5.75,17,5.75,17,5.75C17,5.75,17,4.25,17,4.25C17,4.25,7,4.25,7,4.25C7,4.25,7,5.75,7,5.75C7,5.75,7,5.75,7,5.75ZM18.25,7C18.25,7,18.25,8,18.25,8C18.25,8,19.75,8,19.75,8C19.75,8,19.75,7,19.75,7C19.75,7,18.25,7,18.25,7C18.25,7,18.25,7,18.25,7ZM17,5.75C17.6904,5.75,18.25,6.30964,18.25,7C18.25,7,19.75,7,19.75,7C19.75,5.48122,18.5188,4.25,17,4.25C17,4.25,17,5.75,17,5.75C17,5.75,17,5.75,17,5.75ZM5.75,7C5.75,6.30964,6.30964,5.75,7,5.75C7,5.75,7,4.25,7,4.25C5.48122,4.25,4.25,5.48122,4.25,7C4.25,7,5.75,7,5.75,7C5.75,7,5.75,7,5.75,7Z" fill="#28303F" fill-opacity="1"/></g><g transform="matrix(-1,-8.742277657347586e-8,8.742277657347586e-8,-1,39.499998273400166,39.500001726599834)"><path d="M19.75,23.5C19.75,23.91421,20.085786,24.25,20.5,24.25C20.91421,24.25,21.25,23.91421,21.25,23.5C21.25,23.5,19.75,23.5,19.75,23.5C19.75,23.5,19.75,23.5,19.75,23.5ZM33.75,23.5C33.75,23.91421,34.0858,24.25,34.5,24.25C34.9142,24.25,35.25,23.91421,35.25,23.5C35.25,23.5,33.75,23.5,33.75,23.5C33.75,23.5,33.75,23.5,33.75,23.5ZM21.25,23.5C21.25,23.5,21.25,22.5,21.25,22.5C21.25,22.5,19.75,22.5,19.75,22.5C19.75,22.5,19.75,23.5,19.75,23.5C19.75,23.5,21.25,23.5,21.25,23.5C21.25,23.5,21.25,23.5,21.25,23.5ZM22.5,21.25C22.5,21.25,32.5,21.25,32.5,21.25C32.5,21.25,32.5,19.75,32.5,19.75C32.5,19.75,22.5,19.75,22.5,19.75C22.5,19.75,22.5,21.25,22.5,21.25C22.5,21.25,22.5,21.25,22.5,21.25ZM33.75,22.5C33.75,22.5,33.75,23.5,33.75,23.5C33.75,23.5,35.25,23.5,35.25,23.5C35.25,23.5,35.25,22.5,35.25,22.5C35.25,22.5,33.75,22.5,33.75,22.5C33.75,22.5,33.75,22.5,33.75,22.5ZM32.5,21.25C33.1904,21.25,33.75,21.80964,33.75,22.5C33.75,22.5,35.25,22.5,35.25,22.5C35.25,20.98122,34.0188,19.75,32.5,19.75C32.5,19.75,32.5,21.25,32.5,21.25C32.5,21.25,32.5,21.25,32.5,21.25ZM21.25,22.5C21.25,21.80964,21.80964,21.25,22.5,21.25C22.5,21.25,22.5,19.75,22.5,19.75C20.98122,19.75,19.75,20.98122,19.75,22.5C19.75,22.5,21.25,22.5,21.25,22.5C21.25,22.5,21.25,22.5,21.25,22.5Z" fill="#28303F" fill-opacity="1"/></g><g><path d="M2,11.25C1.585786,11.25,1.25,11.585786,1.25,12C1.25,12.41421,1.585786,12.75,2,12.75C2,12.75,2,11.25,2,11.25C2,11.25,2,11.25,2,11.25ZM22,12.75C22.4142,12.75,22.75,12.41421,22.75,12C22.75,11.585786,22.4142,11.25,22,11.25C22,11.25,22,12.75,22,12.75C22,12.75,22,12.75,22,12.75ZM2,12.75C2,12.75,22,12.75,22,12.75C22,12.75,22,11.25,22,11.25C22,11.25,2,11.25,2,11.25C2,11.25,2,12.75,2,12.75C2,12.75,2,12.75,2,12.75Z" fill="#28303F" fill-opacity="1"/></g></g></svg>